<?xml version="1.0" encoding="UTF-8"?>
<!DOCTYPE svg PUBLIC "-//W3C//DTD SVG 1.1//EN" "http://www.w3.org/Graphics/SVG/1.1/DTD/svg11.dtd">
<svg xmlns="http://www.w3.org/2000/svg" version="1.1" width="500px" height="500px" style="shape-rendering:geometricPrecision; text-rendering:geometricPrecision; image-rendering:optimizeQuality; fill-rule:evenodd; clip-rule:evenodd" xmlns:xlink="http://www.w3.org/1999/xlink">
<g><path style="opacity:0.937" fill="#D946EFFF" d="M 233.5,68.5 C 236.97,67.8748 239.804,68.8748 242,71.5C 242.667,108.167 242.667,144.833 242,181.5C 241.692,182.308 241.192,182.975 240.5,183.5C 224.211,184.651 207.878,184.818 191.5,184C 190.333,183.5 189.5,182.667 189,181.5C 188.807,172.119 188.307,162.786 187.5,153.5C 181.863,152.337 176.196,152.17 170.5,153C 163.575,159.714 156.242,160.214 148.5,154.5C 145.638,150.267 144.805,145.6 146,140.5C 148.303,134.931 152.47,132.265 158.5,132.5C 164.06,132.276 168.06,134.61 170.5,139.5C 179.915,140.052 189.248,140.885 198.5,142C 199,142.5 199.5,143 200,143.5C 200.5,153.161 200.666,162.828 200.5,172.5C 210.416,172.819 220.25,172.486 230,171.5C 230.333,138.833 230.667,106.167 231,73.5C 231.366,71.5483 232.199,69.8816 233.5,68.5 Z"/></g>
<g><path style="opacity:0.947" fill="#D946EFFF" d="M 218.5,70.5 C 220.785,71.2245 222.618,72.5578 224,74.5C 224.667,90.5 224.667,106.5 224,122.5C 223.692,123.308 223.192,123.975 222.5,124.5C 204.544,125.32 186.544,125.82 168.5,126C 161.189,131.084 154.356,130.584 148,124.5C 143.933,116.364 145.766,109.864 153.5,105C 158.03,104.053 162.364,104.553 166.5,106.5C 168.69,108.856 170.69,111.356 172.5,114C 185.846,114.833 199.179,114.666 212.5,113.5C 213.315,100.212 213.815,86.8785 214,73.5C 215.652,72.6006 217.152,71.6006 218.5,70.5 Z"/></g>
<g><path style="opacity:0.969" fill="#D946EFFF" d="M 249.5,74.5 C 276.722,72.1658 302.389,76.9991 326.5,89C 357.322,108.213 374.822,136.047 379,172.5C 379.667,191.167 379.667,209.833 379,228.5C 376.394,234.165 373.894,239.832 371.5,245.5C 378.904,261.985 386.071,278.651 393,295.5C 395.498,302.323 396.832,309.323 397,316.5C 395.421,318.041 393.587,319.208 391.5,320C 381.13,320.962 370.797,321.296 360.5,321C 367.097,328.777 371.764,337.61 374.5,347.5C 373.394,350.441 371.394,352.608 368.5,354C 365.107,354.798 361.774,355.798 358.5,357C 362.44,358.886 365.94,361.386 369,364.5C 370.443,369.212 369.277,373.045 365.5,376C 361.447,377.125 357.614,378.625 354,380.5C 349.199,393.029 347.199,406.029 348,419.5C 347.31,422.196 345.81,424.363 343.5,426C 333.852,427.891 324.186,427.891 314.5,426C 276.012,418.305 243.179,400.471 216,372.5C 208.91,364.1 203.577,354.766 200,344.5C 197.93,322.862 196.597,301.196 196,279.5C 199.694,272.136 204.86,265.97 211.5,261C 217.64,259.898 223.807,259.065 230,258.5C 230.825,240.26 230.659,222.093 229.5,204C 225.245,203.204 221.079,203.371 217,204.5C 216.667,214.833 216.333,225.167 216,235.5C 215.5,236 215,236.5 214.5,237C 203.688,238.133 192.854,238.966 182,239.5C 181.333,262.5 181.333,285.5 182,308.5C 187.961,313.106 189.961,319.106 188,326.5C 180.837,336.31 172.837,336.977 164,328.5C 160.125,320.911 161.625,314.577 168.5,309.5C 169.333,282.84 169.833,256.173 170,229.5C 170.903,228.299 172.069,227.465 173.5,227C 183.5,226.667 193.5,226.333 203.5,226C 204.321,215.91 204.821,205.744 205,195.5C 205.374,194.584 205.874,193.75 206.5,193C 217.068,191.381 227.735,191.048 238.5,192C 239.931,192.465 241.097,193.299 242,194.5C 242.333,215.833 242.667,237.167 243,258.5C 246.073,259.617 249.24,259.784 252.5,259C 253.659,238.573 253.826,218.073 253,197.5C 244.01,188.645 244.51,180.478 254.5,173C 270.257,171.678 275.59,178.511 270.5,193.5C 269.149,195.019 267.649,196.352 266,197.5C 265.333,217.833 265.333,238.167 266,258.5C 282.093,259.658 298.259,259.824 314.5,259C 317.562,257.939 320.062,256.106 322,253.5C 327.667,243.5 333.333,233.5 339,223.5C 340.204,217.247 340.871,210.914 341,204.5C 342.01,200.157 344.51,196.99 348.5,195C 355.02,193.99 361.52,193.157 368,192.5C 368.395,174.196 364.562,156.862 356.5,140.5C 348.749,139.069 341.083,139.235 333.5,141C 331.792,142.51 330.126,144.01 328.5,145.5C 330.193,146.228 331.693,147.228 333,148.5C 333.667,168.5 333.667,188.5 333,208.5C 332.5,209 332,209.5 331.5,210C 320.121,210.188 308.787,210.688 297.5,211.5C 296.336,217.472 296.17,223.472 297,229.5C 306.329,237.253 306.829,245.419 298.5,254C 283.71,258.206 277.21,252.706 279,237.5C 280.201,235.091 281.867,233.091 284,231.5C 284.333,221.833 284.667,212.167 285,202.5C 285.5,201.333 286.333,200.5 287.5,200C 298.743,199.822 309.91,199.322 321,198.5C 321.667,185.167 321.667,171.833 321,158.5C 304.574,157.342 288.074,157.176 271.5,158C 264.453,166.76 256.62,167.593 248,160.5C 242.454,144.376 248.121,137.71 265,140.5C 266.933,141.882 268.766,143.382 270.5,145C 286.833,145.667 303.167,145.667 319.5,145C 312.009,140.525 309.175,134.025 311,125.5C 305.221,131.164 298.721,131.997 291.5,128C 277.833,127.667 264.167,127.333 250.5,127C 249.692,126.692 249.025,126.192 248.5,125.5C 247.848,117.212 247.514,108.879 247.5,100.5C 247.558,91.6721 248.225,83.0054 249.5,74.5 Z M 312.5,124.5 C 315.486,110.325 309.82,103.825 295.5,105C 291.483,107.353 288.483,110.687 286.5,115C 277.506,115.5 268.506,115.666 259.5,115.5C 258.023,105.767 258.189,96.1003 260,86.5C 293.6,84.6994 321.934,96.0327 345,120.5C 345.615,122.116 346.615,123.449 348,124.5C 348.49,125.793 348.657,127.127 348.5,128.5C 345.15,128.665 341.817,128.498 338.5,128C 336.047,126.12 334.047,123.787 332.5,121C 324.822,116.928 318.156,118.094 312.5,124.5 Z"/></g>
<g><path style="opacity:0.941" fill="#D946EFFF" d="M 136.5,121.5 C 138.583,122.029 140.417,123.029 142,124.5C 142.333,150.167 142.667,175.833 143,201.5C 153.757,202.653 164.59,202.82 175.5,202C 177.845,199.323 180.512,196.99 183.5,195C 194.148,192.655 200.482,196.822 202.5,207.5C 200.365,217.391 194.365,221.558 184.5,220C 181.268,218.77 178.601,216.77 176.5,214C 165.257,213.18 154.09,213.347 143,214.5C 142.333,228.167 142.333,241.833 143,255.5C 148.372,260.87 153.372,266.537 158,272.5C 158.667,288.833 158.667,305.167 158,321.5C 155.127,327.02 151.46,327.687 147,323.5C 146.667,322.167 146.333,320.833 146,319.5C 145.596,305.41 145.429,291.41 145.5,277.5C 141.59,271.75 137.09,266.416 132,261.5C 131.333,215.833 131.333,170.167 132,124.5C 133.31,123.103 134.81,122.103 136.5,121.5 Z"/></g>
<g><path style="opacity:0.938" fill="#D946EFFF" d="M 110.5,135.5 C 124.23,133.933 130.064,139.933 128,153.5C 126.374,156.128 124.374,158.461 122,160.5C 120.087,178.15 120.087,195.816 122,213.5C 130.39,221.545 130.557,229.712 122.5,238C 110.847,241.998 103.847,237.998 101.5,226C 102.732,221.095 105.232,216.928 109,213.5C 109.667,195.833 109.667,178.167 109,160.5C 101.977,154.655 100.644,147.655 105,139.5C 106.793,137.975 108.626,136.642 110.5,135.5 Z"/></g>
</svg>
